# xmcd
#
# Track frame offsets:
#	150
#	12959
#	22116
#	32965
#	48426
#	59444
#	69369
#	76799
#	84429
#	98734
#	110749
#	124500
#	133912
#	150542
#
# Disc length: 2114 seconds
#
# Revision: 2
# Processed by: cddbd v1.5.1PL0 Copyright (c) Steve Scherf et al.
# Submitted via: MusicWizard 6.0.1
#
DISCID=b208400e
DTITLE=J. J. Cale - Grasshopper
DYEAR=1981
DGENRE=Country
TTITLE0=City Girls
TTITLE1=Devil In Disguise
TTITLE2=One Step Ahead Of The Blues
TTITLE3=You Keep Me Hangin' On
TTITLE4=Downtown L.A.
TTITLE5=Can't Live Here
TTITLE6=Grasshopper
TTITLE7=Drifters Wife
TTITLE8=Don't Wait
TTITLE9=A Thing Going On
TTITLE10=Nobody But You
TTITLE11=Mississippi River
TTITLE12=Does Your Mama Like To Reggae
TTITLE13=Dr. Jive
EXTD=(c)1981 Audigram Nashville\n(p) Audie Ashworth and J. J. Cale
EXTT0=
EXTT1=
EXTT2=
EXTT3=
EXTT4=
EXTT5=
EXTT6=
EXTT7=
EXTT8=
EXTT9=
EXTT10=
EXTT11=
EXTT12=
EXTT13=
PLAYORDER=
